<mxfile host="app.diagrams.net" modified="2022-06-11T09:29:34.550Z" agent="5.0 (Macintosh; Intel Mac OS X 10_15_7) AppleWebKit/537.36 (KHTML, like Gecko) Chrome/102.0.5005.61 Safari/537.36" etag="TcPMvEA3Y4btksFKiSX5" version="18.1.3" type="github">
  <diagram id="If2nWtWF-dJY9FGlhHSV" name="Page-1">
    <mxGraphModel dx="2066" dy="1129" grid="1" gridSize="10" guides="1" tooltips="1" connect="1" arrows="1" fold="1" page="1" pageScale="1" pageWidth="827" pageHeight="1169" math="1" shadow="0">
      <root>
        <mxCell id="0" />
        <mxCell id="1" parent="0" />
        <mxCell id="z3L6C_gutYaWgmZt_wwa-1" value="Pretrained LM" style="rounded=1;whiteSpace=wrap;html=1;fillColor=#fff2cc;strokeColor=#d6b656;" vertex="1" parent="1">
          <mxGeometry x="40" y="200" width="300" height="60" as="geometry" />
        </mxCell>
        <mxCell id="z3L6C_gutYaWgmZt_wwa-2" value="Pretrained LM" style="rounded=1;whiteSpace=wrap;html=1;fillColor=#fff2cc;strokeColor=#d6b656;" vertex="1" parent="1">
          <mxGeometry x="380" y="200" width="380" height="60" as="geometry" />
        </mxCell>
        <mxCell id="z3L6C_gutYaWgmZt_wwa-9" value="" style="edgeStyle=orthogonalEdgeStyle;rounded=0;orthogonalLoop=1;jettySize=auto;html=1;" edge="1" parent="1" source="z3L6C_gutYaWgmZt_wwa-3" target="z3L6C_gutYaWgmZt_wwa-1">
          <mxGeometry relative="1" as="geometry" />
        </mxCell>
        <mxCell id="z3L6C_gutYaWgmZt_wwa-3" value="`S_1 U_1 \oplus S_2 U_2\oplusS_3,U_3`" style="text;html=1;strokeColor=none;fillColor=none;align=center;verticalAlign=middle;whiteSpace=wrap;rounded=0;" vertex="1" parent="1">
          <mxGeometry x="40" y="320" width="300" height="30" as="geometry" />
        </mxCell>
        <mxCell id="z3L6C_gutYaWgmZt_wwa-10" value="" style="edgeStyle=orthogonalEdgeStyle;rounded=0;orthogonalLoop=1;jettySize=auto;html=1;" edge="1" parent="1" source="z3L6C_gutYaWgmZt_wwa-4" target="z3L6C_gutYaWgmZt_wwa-2">
          <mxGeometry relative="1" as="geometry" />
        </mxCell>
        <mxCell id="z3L6C_gutYaWgmZt_wwa-4" value="`S_1 U_1 \oplus S_2 U_2\oplusS_3,U_3`for utterance `U_3 `,`S_3` feels &amp;lt;mask&amp;gt;" style="text;html=1;strokeColor=none;fillColor=none;align=center;verticalAlign=middle;whiteSpace=wrap;rounded=0;" vertex="1" parent="1">
          <mxGeometry x="380" y="290" width="380" height="30" as="geometry" />
        </mxCell>
        <mxCell id="z3L6C_gutYaWgmZt_wwa-6" value="`S_1 U_1 \oplus S_2 U_2\oplusS_3,U_3`for utterance `U_2 `,`S_2` feels &amp;lt;mask&amp;gt;" style="text;html=1;strokeColor=none;fillColor=none;align=center;verticalAlign=middle;whiteSpace=wrap;rounded=0;" vertex="1" parent="1">
          <mxGeometry x="380" y="330" width="380" height="30" as="geometry" />
        </mxCell>
        <mxCell id="z3L6C_gutYaWgmZt_wwa-7" value="`S_1 U_1 \oplus S_2 U_2\oplusS_3,U_3`for utterance `U_1 `,`S_1` feels &amp;lt;mask&amp;gt;" style="text;html=1;strokeColor=none;fillColor=none;align=center;verticalAlign=middle;whiteSpace=wrap;rounded=0;" vertex="1" parent="1">
          <mxGeometry x="380" y="370" width="380" height="30" as="geometry" />
        </mxCell>
        <mxCell id="z3L6C_gutYaWgmZt_wwa-8" value="encode the emotion of `U_3`" style="text;html=1;strokeColor=none;fillColor=none;align=center;verticalAlign=middle;whiteSpace=wrap;rounded=0;" vertex="1" parent="1">
          <mxGeometry x="40" y="130" width="160" height="50" as="geometry" />
        </mxCell>
      </root>
    </mxGraphModel>
  </diagram>
</mxfile>
